<svg width="225" height="49" viewBox="0 0 225 49" fill="none" xmlns="http://www.w3.org/2000/svg">
<path d="M192.016 19.0249L191.859 18.8683C190.125 17.1459 187.682 16.1281 185.003 16.1281C178.934 16.1281 174.206 20.7473 174.206 26.6975C174.206 32.6477 178.934 37.3452 185.003 37.3452C187.446 37.3452 189.81 36.4057 191.544 34.6833L191.701 34.5267V37.7367C191.701 41.4947 189.416 43.9217 185.869 43.9217C182.954 43.9217 180.668 42.3559 179.959 39.8505L174.442 41.1815C175.309 44.7046 178.777 48.7758 185.712 48.7758C192.804 48.7758 197.454 44.4697 197.454 37.8932V16.5196H192.016V19.0249ZM186.027 32.4128C182.717 32.4128 180.195 29.9858 180.195 26.6975C180.195 23.4875 182.717 20.9039 186.027 20.9039C189.258 20.9039 191.859 23.4875 191.859 26.6975C191.938 29.9075 189.337 32.4128 186.027 32.4128ZM74.2779 21.2171L74.0415 21.1388L74.2779 20.9822C76.7997 19.4947 78.2971 16.8327 78.2971 13.7011C78.2971 8.76869 74.1203 5.32385 68.1309 5.32385H55.0488V38.5196H69.313C72.2289 38.5196 74.9871 37.6584 76.9573 36.0142C79.0851 34.2918 80.2673 31.9431 80.2673 29.2029C80.2673 25.4448 78.0606 22.4698 74.2779 21.2171ZM61.0382 10.2562H67.1064C70.0223 10.2562 72.0713 12.0569 72.0713 14.5623C72.0713 17.3025 70.0223 19.1815 67.1064 19.1815H61.0382V10.2562ZM68.4461 33.7438H61.0382V23.879H68.4461C71.5984 23.879 74.0415 25.9146 74.0415 28.6548C74.0415 31.6299 71.756 33.7438 68.4461 33.7438ZM100.994 19.3381L100.836 19.1032C98.9446 17.1459 96.344 16.0498 93.4281 16.0498C87.1235 16.0498 82.1586 21.0605 82.1586 27.4804C82.1586 33.9004 87.1235 38.9893 93.4281 38.9893C96.2652 38.9893 98.8658 37.8932 100.836 35.8577L100.994 35.6228V38.5196H106.589V16.5196H100.994V19.3381ZM94.4526 34.2135C90.8275 34.2135 87.9904 31.3167 87.9904 27.5587C87.9904 23.879 90.8275 20.9822 94.4526 20.9822C98.0778 20.9822 100.915 23.879 100.915 27.5587C100.915 31.3167 98.0778 34.2135 94.4526 34.2135ZM218.653 16.5196V19.3381L218.496 19.1032C216.604 17.1459 214.004 16.0498 211.088 16.0498C204.783 16.0498 199.818 21.0605 199.818 27.4804C199.818 33.9004 204.783 38.9893 211.088 38.9893C213.925 38.9893 216.526 37.8932 218.496 35.8577L218.653 35.6228V38.5196H224.249V16.5196H218.653ZM212.112 34.2135C208.487 34.2135 205.65 31.3167 205.65 27.5587C205.65 23.879 208.487 20.9822 212.112 20.9822C215.737 20.9822 218.575 23.879 218.575 27.5587C218.575 31.3167 215.737 34.2135 212.112 34.2135ZM119.356 7.90748C117.464 8.53382 115.494 9.08186 113.524 9.55161V16.5979H109.032V21.6085H113.524V38.6762H119.356V21.5303H124.084V16.5196H119.356V7.90748ZM163.409 16.1281C160.887 16.1281 158.444 17.1459 156.868 18.8683L156.711 19.1032V16.5979H151.273V38.6762H157.105V25.9146C157.105 23.1744 159.154 21.1388 161.991 21.1388C163.094 21.1388 164.197 21.5303 165.064 22.3132C166.01 23.1744 166.483 24.427 166.483 25.9146V38.6762H172.314V24.6619C172.078 19.6512 168.453 16.1281 163.409 16.1281ZM136.693 16.1281C133.305 16.1281 130.152 17.3025 127.946 19.4947C125.739 21.6085 124.557 24.5053 124.557 27.5587C124.557 34.1352 129.837 39.0676 136.772 39.0676C140.161 39.0676 143.234 37.8932 145.52 35.7011C147.727 33.5872 148.987 30.6904 148.987 27.5587C148.987 24.5053 147.805 21.6085 145.52 19.4947C143.156 17.3025 140.082 16.1281 136.693 16.1281ZM136.693 34.0569C133.068 34.0569 130.231 31.1601 130.231 27.5587C130.231 23.9573 133.068 21.0605 136.693 21.0605C140.319 21.0605 143.156 23.879 143.156 27.5587C143.156 31.2384 140.319 34.0569 136.693 34.0569Z" fill="#000000" />
<path d="M43.0698 12.3701C43.0698 12.3701 43.8579 10.5694 44.4096 8.14235C44.7248 6.81139 43.7791 5.55872 42.4394 5.48043C40.8632 5.32384 39.3659 5.48043 37.7897 5.7153C34.4798 6.34164 31.5639 7.90747 29.1209 10.2562C27.5448 11.7438 26.3626 13.5445 25.4958 15.5018C25.1017 14.2491 24.6289 12.9964 23.9984 11.9004C27.4659 6.18505 33.7705 2.34875 41.0208 2.34875C41.0208 2.34875 41.5725 2.34875 42.2818 2.42705C42.991 2.50534 43.5427 1.9573 43.5427 1.25267C43.5427 0.626335 43.0698 0.156584 42.4394 0.0782921C41.9665 0.0782921 41.4937 0 41.0208 0C33.3765 0 26.6779 3.8363 22.6587 9.62989C18.6395 3.8363 11.9409 0 4.29652 0C3.82368 0 3.27203 2.97493e-07 2.79918 0.0782921C2.16872 0.156584 1.69587 0.626335 1.69587 1.25267C1.69587 1.9573 2.24753 2.50534 2.9568 2.42705C3.42964 2.42705 3.90249 2.34875 4.29652 2.34875C11.468 2.34875 17.7726 6.18505 21.319 11.9004C20.6885 13.0747 20.2157 14.2491 19.8216 15.5018C18.9547 13.5445 17.7726 11.7438 16.1965 10.2562C13.8322 7.90747 10.7587 6.34164 7.44883 5.7153C7.44883 5.7153 5.47864 5.40213 2.9568 5.48043C1.61707 5.48043 0.59257 6.7331 0.828992 8.06406C1.14422 9.5516 1.53826 11.0391 2.16872 12.3701C4.29652 17.3808 8.31571 21.452 13.2806 23.8007C12.8865 25.6797 11.9409 27.4021 10.4435 28.7331C8.78856 30.2989 6.58194 31.0819 4.29652 31.0819C3.90249 31.0819 3.42964 31.0036 3.0356 31.0036C2.32634 30.9253 1.69587 31.4733 1.69587 32.1779C1.69587 32.726 2.08991 33.274 2.72037 33.3523C3.19322 33.4306 3.82368 33.5089 4.37533 33.5089C7.29121 33.5089 9.97067 32.4128 12.0985 30.5338C13.8322 28.968 15.0144 26.9324 15.4872 24.7402C16.4329 25.0534 17.3786 25.2883 18.4031 25.5231C17.6938 28.4199 16.1177 31.0819 13.7534 33.0391C11.1528 35.3096 7.76406 36.5623 4.29652 36.5623C3.82368 36.5623 3.35083 36.5623 2.9568 36.484C2.24753 36.4057 1.69587 36.9537 1.69587 37.6584C1.69587 38.2847 2.16872 38.7544 2.72037 38.8327C3.27203 38.911 3.82368 38.911 4.29652 38.911C8.31571 38.911 12.2561 37.5018 15.3296 34.8399C17.2998 33.1957 18.7971 31.0819 19.8216 28.7331C20.2157 29.9858 20.6885 31.1601 21.319 32.2562C17.8514 37.9715 11.5468 41.8078 4.29652 41.8078C3.82368 41.8078 3.35083 41.8078 2.9568 41.7295C2.32633 41.6512 1.69587 42.1993 1.69587 42.8256C1.69587 43.452 2.16872 44 2.79918 44.0783C3.27203 44.0783 3.82368 44.1566 4.29652 44.1566C11.9409 44.1566 18.6395 40.3203 22.6587 34.5267C26.6779 40.3203 33.3765 44.1566 41.0208 44.1566C41.4937 44.1566 41.9665 44.1566 42.4394 44.0783C43.0698 44 43.5427 43.5302 43.5427 42.9039C43.5427 42.1993 42.991 41.7295 42.2818 41.7295C41.4937 41.8078 41.0208 41.8078 41.0208 41.8078C33.8494 41.8078 27.5448 37.9715 23.9984 32.2562C24.6289 31.1601 25.1017 29.9075 25.4958 28.7331C26.5203 31.0819 28.0176 33.1174 29.9878 34.8399C33.0613 37.5018 36.9229 38.911 41.0208 38.911C41.4937 38.911 41.9665 38.911 42.4394 38.8327C43.0698 38.7544 43.5427 38.2847 43.5427 37.6584C43.5427 36.9537 42.991 36.484 42.2818 36.484C41.5725 36.5623 41.0208 36.5623 41.0208 36.5623C37.5533 36.5623 34.1646 35.3096 31.5639 33.0391C29.2785 31.0819 27.6236 28.4199 26.9143 25.4448C27.9388 25.2883 28.8845 24.9751 29.8302 24.6619C30.3818 26.8541 31.5639 28.8897 33.2189 30.4555C35.3467 32.4128 38.105 33.4306 41.0208 33.4306C41.0208 33.4306 41.6513 33.4306 42.5182 33.3523C43.0698 33.274 43.5427 32.8043 43.5427 32.1779C43.5427 31.4733 42.9122 30.9253 42.203 31.0036C41.8877 31.0818 41.4149 31.0819 41.0208 31.0819C38.7354 31.0819 36.5288 30.2206 34.8739 28.7331C33.4553 27.4021 32.4308 25.6797 32.1156 23.7224C36.9229 21.452 40.942 17.3025 43.0698 12.3701ZM14.5415 11.9004C16.1177 13.4662 17.2998 15.3452 18.009 17.3808C15.96 16.6762 14.0687 15.5018 12.4925 14.0142L12.4137 13.9359C10.8376 12.3701 9.65544 10.4911 8.94617 8.45552C11.074 9.16014 12.9654 10.3345 14.5415 11.9004ZM4.0601 10.6477C3.74487 9.86477 3.50845 9.00356 3.35083 8.22064C3.27203 7.90747 3.42964 7.75089 3.66606 7.75089C4.53295 7.6726 5.47864 7.75089 6.34552 7.90747C6.66075 9.00356 7.05479 10.0996 7.52764 11.1174C6.50314 10.8043 5.47864 10.6477 4.37533 10.6477C4.21772 10.6477 4.13891 10.6477 4.0601 10.6477ZM5.0846 12.9964C7.29121 13.153 9.2614 14.0925 10.7587 15.5801L10.8376 15.6584C12.2561 17.1459 13.2018 19.0249 13.4382 21.2171C9.89186 19.3381 6.97598 16.4413 5.0846 12.9964ZM18.7971 23.0961C17.7726 22.8612 16.8269 22.6263 15.8024 22.2349C15.8024 22.1566 15.8024 22.0783 15.8024 22C15.8024 20.9039 15.6448 19.8078 15.3296 18.79C16.3541 19.2598 17.4574 19.6512 18.6395 19.9644C18.7183 20.5907 18.7971 21.2954 18.7971 22V22.0783C18.7971 22.3915 18.7971 22.7829 18.7971 23.0961ZM22.6587 14.484C23.1315 15.6584 23.5256 16.8327 23.762 18.0854C23.0527 18.1637 22.2646 18.1637 21.5554 18.0854C21.7918 16.8327 22.1858 15.6584 22.6587 14.484ZM22.6587 29.516C22.1858 28.3416 21.7918 27.089 21.5554 25.758C22.3435 25.758 23.0527 25.758 23.8408 25.758C23.5256 27.089 23.1315 28.3416 22.6587 29.516ZM24.0772 23.4093C23.1315 23.4875 22.1858 23.4875 21.1613 23.4093C21.1613 23.0178 21.0825 22.548 21.0825 22.0783V22C21.0825 21.452 21.0825 20.9039 21.1613 20.4342C21.6342 20.5125 22.107 20.5125 22.5799 20.5125C23.0527 20.5125 23.5256 20.5125 23.9984 20.4342C24.0772 20.9822 24.0772 21.5302 24.0772 22C24.156 22.4697 24.156 22.9395 24.0772 23.4093ZM38.9718 7.82918C39.6023 7.75089 40.3116 7.6726 40.942 7.6726C41.1785 7.6726 41.3361 7.6726 41.5725 7.6726C41.8089 7.6726 41.9665 7.90747 41.8877 8.14235C41.7301 9.00356 41.4149 9.78647 41.1785 10.5694C41.0997 10.5694 41.0208 10.5694 40.942 10.5694C39.8387 10.5694 38.7354 10.726 37.7897 11.0391C38.3414 10.0214 38.7354 8.92526 38.9718 7.82918ZM30.7759 11.9004C32.352 10.3345 34.2434 9.16014 36.3712 8.45552C35.6619 10.4911 34.4798 12.3701 32.9825 13.9359L32.9037 14.0142C31.3275 15.5801 29.4361 16.6762 27.3871 17.3808C28.0176 15.3452 29.1997 13.4662 30.7759 11.9004ZM29.5149 22C29.5149 22.0783 29.5149 22.1566 29.5149 22.2349C28.5693 22.6263 27.5448 22.8612 26.5203 23.0961C26.5203 22.7829 26.5203 22.4697 26.5203 22.0783C26.5203 21.3737 26.5991 20.669 26.6779 19.9644C27.86 19.6512 28.9633 19.2598 29.9878 18.79C29.6726 19.8078 29.5149 20.9039 29.5149 22ZM31.8792 21.1388C32.1156 19.0249 33.0613 17.0676 34.4798 15.6584L34.5586 15.5801L34.6374 15.5018C36.056 14.0925 38.0262 13.153 40.154 12.9181C38.2626 16.4413 35.4255 19.3381 31.8792 21.1388Z" fill="#000000" />
</svg>
